<mxfile host="app.diagrams.net" agent="Mozilla/5.0 (Macintosh; Intel Mac OS X 10_15_7) AppleWebKit/537.36 (KHTML, like Gecko) Chrome/137.0.0.0 Safari/537.36" version="27.2.0">
  <diagram name="Page-1" id="zDiDgkvup9f93v-E7NFk">
    <mxGraphModel dx="1234" dy="831" grid="1" gridSize="10" guides="1" tooltips="1" connect="1" arrows="1" fold="1" page="1" pageScale="1" pageWidth="827" pageHeight="1169" math="0" shadow="0">
      <root>
        <mxCell id="0" />
        <mxCell id="1" parent="0" />
        <mxCell id="hbeo9B9HrJTHeu_saSj9-10" value="Client system" style="rounded=0;whiteSpace=wrap;html=1;align=center;verticalAlign=top;" vertex="1" parent="1">
          <mxGeometry x="240" y="90" width="210" height="100" as="geometry" />
        </mxCell>
        <mxCell id="hbeo9B9HrJTHeu_saSj9-2" value="terraform" style="rounded=1;whiteSpace=wrap;html=1;" vertex="1" parent="1">
          <mxGeometry x="320" y="130" width="110" height="40" as="geometry" />
        </mxCell>
        <mxCell id="hbeo9B9HrJTHeu_saSj9-9" value="main.tf&lt;div&gt;any.hcl&lt;/div&gt;" style="text;strokeColor=none;fillColor=none;spacingLeft=4;spacingRight=4;overflow=hidden;rotatable=0;points=[[0,0.5],[1,0.5]];portConstraint=eastwest;fontSize=12;whiteSpace=wrap;html=1;" vertex="1" parent="1">
          <mxGeometry x="250" y="130" width="60" height="40" as="geometry" />
        </mxCell>
        <mxCell id="hbeo9B9HrJTHeu_saSj9-11" value="" style="endArrow=classic;html=1;rounded=0;exitX=0.5;exitY=1;exitDx=0;exitDy=0;" edge="1" parent="1" source="hbeo9B9HrJTHeu_saSj9-10">
          <mxGeometry relative="1" as="geometry">
            <mxPoint x="330" y="430" as="sourcePoint" />
            <mxPoint x="345" y="300" as="targetPoint" />
          </mxGeometry>
        </mxCell>
        <mxCell id="hbeo9B9HrJTHeu_saSj9-12" value="terrafrom commad(plan,apply,etc)" style="edgeLabel;resizable=0;html=1;;align=center;verticalAlign=middle;" connectable="0" vertex="1" parent="hbeo9B9HrJTHeu_saSj9-11">
          <mxGeometry relative="1" as="geometry" />
        </mxCell>
        <mxCell id="hbeo9B9HrJTHeu_saSj9-13" value="Source" style="edgeLabel;resizable=0;html=1;;align=left;verticalAlign=bottom;" connectable="0" vertex="1" parent="hbeo9B9HrJTHeu_saSj9-11">
          <mxGeometry x="-1" relative="1" as="geometry" />
        </mxCell>
        <mxCell id="hbeo9B9HrJTHeu_saSj9-14" value="Target" style="edgeLabel;resizable=0;html=1;;align=right;verticalAlign=bottom;" connectable="0" vertex="1" parent="hbeo9B9HrJTHeu_saSj9-11">
          <mxGeometry x="1" relative="1" as="geometry" />
        </mxCell>
        <mxCell id="hbeo9B9HrJTHeu_saSj9-16" value="HCP" style="rounded=1;whiteSpace=wrap;html=1;" vertex="1" parent="1">
          <mxGeometry x="80" y="300" width="540" height="50" as="geometry" />
        </mxCell>
        <mxCell id="hbeo9B9HrJTHeu_saSj9-17" value="while user executing any commad terraform passes accociated files like main.tf and other files&amp;nbsp;" style="text;html=1;align=center;verticalAlign=middle;whiteSpace=wrap;rounded=0;" vertex="1" parent="1">
          <mxGeometry x="480" y="200" width="230" height="50" as="geometry" />
        </mxCell>
        <mxCell id="hbeo9B9HrJTHeu_saSj9-39" value="" style="whiteSpace=wrap;html=1;aspect=fixed;" vertex="1" parent="1">
          <mxGeometry x="110" y="470" width="230" height="230" as="geometry" />
        </mxCell>
        <mxCell id="hbeo9B9HrJTHeu_saSj9-42" value="" style="edgeStyle=orthogonalEdgeStyle;rounded=0;orthogonalLoop=1;jettySize=auto;html=1;" edge="1" parent="1" source="hbeo9B9HrJTHeu_saSj9-40" target="hbeo9B9HrJTHeu_saSj9-41">
          <mxGeometry relative="1" as="geometry" />
        </mxCell>
        <mxCell id="hbeo9B9HrJTHeu_saSj9-40" value="tfc-agent" style="rounded=0;whiteSpace=wrap;html=1;" vertex="1" parent="1">
          <mxGeometry x="120" y="480" width="210" height="40" as="geometry" />
        </mxCell>
        <mxCell id="hbeo9B9HrJTHeu_saSj9-41" value="tfc-agnet-core" style="whiteSpace=wrap;html=1;rounded=0;" vertex="1" parent="1">
          <mxGeometry x="120" y="530" width="210" height="30" as="geometry" />
        </mxCell>
        <mxCell id="hbeo9B9HrJTHeu_saSj9-58" value="" style="endArrow=classic;startArrow=classic;html=1;rounded=0;exitX=0.5;exitY=0;exitDx=0;exitDy=0;entryX=0.187;entryY=1;entryDx=0;entryDy=0;entryPerimeter=0;" edge="1" parent="1" source="hbeo9B9HrJTHeu_saSj9-39" target="hbeo9B9HrJTHeu_saSj9-16">
          <mxGeometry width="50" height="50" relative="1" as="geometry">
            <mxPoint x="390" y="450" as="sourcePoint" />
            <mxPoint x="440" y="400" as="targetPoint" />
          </mxGeometry>
        </mxCell>
        <mxCell id="hbeo9B9HrJTHeu_saSj9-59" value="JOB api call from agent to HCP&lt;div&gt;Response contains&amp;nbsp;&lt;/div&gt;&lt;div&gt;&quot;configuration_version_url&quot;&lt;/div&gt;" style="edgeLabel;html=1;align=center;verticalAlign=middle;resizable=0;points=[];" vertex="1" connectable="0" parent="hbeo9B9HrJTHeu_saSj9-58">
          <mxGeometry x="-0.067" y="2" relative="1" as="geometry">
            <mxPoint x="-92" y="-4" as="offset" />
          </mxGeometry>
        </mxCell>
        <mxCell id="hbeo9B9HrJTHeu_saSj9-63" value="" style="endArrow=classic;startArrow=classic;html=1;rounded=0;exitX=1;exitY=0;exitDx=0;exitDy=0;entryX=0.5;entryY=1;entryDx=0;entryDy=0;" edge="1" parent="1" source="hbeo9B9HrJTHeu_saSj9-39" target="hbeo9B9HrJTHeu_saSj9-16">
          <mxGeometry width="50" height="50" relative="1" as="geometry">
            <mxPoint x="390" y="450" as="sourcePoint" />
            <mxPoint x="440" y="400" as="targetPoint" />
          </mxGeometry>
        </mxCell>
        <mxCell id="hbeo9B9HrJTHeu_saSj9-64" value="configuration_version_url&lt;div&gt;Response contains&lt;br&gt;all the configuration files as zip&amp;nbsp;&lt;/div&gt;&lt;div&gt;and it will extract and store in the wotking Dir&lt;/div&gt;" style="edgeLabel;html=1;align=center;verticalAlign=middle;resizable=0;points=[];" vertex="1" connectable="0" parent="hbeo9B9HrJTHeu_saSj9-63">
          <mxGeometry x="0.0311" y="3" relative="1" as="geometry">
            <mxPoint x="128" y="2" as="offset" />
          </mxGeometry>
        </mxCell>
        <mxCell id="hbeo9B9HrJTHeu_saSj9-66" value="step_integraion_sdk" style="shape=hexagon;perimeter=hexagonPerimeter2;whiteSpace=wrap;html=1;fixedSize=1;" vertex="1" parent="1">
          <mxGeometry x="165" y="630" width="120" height="40" as="geometry" />
        </mxCell>
        <mxCell id="hbeo9B9HrJTHeu_saSj9-67" value="cost-optimizer-task" style="rounded=1;whiteSpace=wrap;html=1;" vertex="1" parent="1">
          <mxGeometry x="445" y="600" width="300" height="100" as="geometry" />
        </mxCell>
        <mxCell id="hbeo9B9HrJTHeu_saSj9-68" value="integration sdk" style="shape=hexagon;perimeter=hexagonPerimeter2;whiteSpace=wrap;html=1;fixedSize=1;" vertex="1" parent="1">
          <mxGeometry x="520" y="610" width="120" height="30" as="geometry" />
        </mxCell>
        <mxCell id="hbeo9B9HrJTHeu_saSj9-69" value="" style="endArrow=classic;startArrow=classic;html=1;rounded=0;exitX=0.991;exitY=0.8;exitDx=0;exitDy=0;entryX=0;entryY=0.5;entryDx=0;entryDy=0;exitPerimeter=0;" edge="1" parent="1" source="hbeo9B9HrJTHeu_saSj9-39" target="hbeo9B9HrJTHeu_saSj9-67">
          <mxGeometry width="50" height="50" relative="1" as="geometry">
            <mxPoint x="390" y="550" as="sourcePoint" />
            <mxPoint x="440" y="500" as="targetPoint" />
          </mxGeometry>
        </mxCell>
        <mxCell id="hbeo9B9HrJTHeu_saSj9-70" value="gRPC&lt;div&gt;communication&lt;/div&gt;" style="text;html=1;align=center;verticalAlign=middle;resizable=0;points=[];autosize=1;strokeColor=none;fillColor=none;" vertex="1" parent="1">
          <mxGeometry x="340" y="605" width="100" height="40" as="geometry" />
        </mxCell>
        <mxCell id="hbeo9B9HrJTHeu_saSj9-72" value="terraform&lt;div&gt;Repo&lt;/div&gt;" style="shape=cylinder3;whiteSpace=wrap;html=1;boundedLbl=1;backgroundOutline=1;size=15;" vertex="1" parent="1">
          <mxGeometry x="140" y="770" width="60" height="80" as="geometry" />
        </mxCell>
        <mxCell id="hbeo9B9HrJTHeu_saSj9-73" value="" style="endArrow=classic;startArrow=classic;html=1;rounded=0;entryX=0.5;entryY=0;entryDx=0;entryDy=0;entryPerimeter=0;exitX=0.25;exitY=1;exitDx=0;exitDy=0;" edge="1" parent="1" source="hbeo9B9HrJTHeu_saSj9-39" target="hbeo9B9HrJTHeu_saSj9-72">
          <mxGeometry width="50" height="50" relative="1" as="geometry">
            <mxPoint x="390" y="480" as="sourcePoint" />
            <mxPoint x="440" y="430" as="targetPoint" />
          </mxGeometry>
        </mxCell>
      </root>
    </mxGraphModel>
  </diagram>
</mxfile>
